<?xml version="1.0" encoding="UTF-8"?>
<svg width="128" height="128" viewBox="0 0 128 128" xmlns="http://www.w3.org/2000/svg">
  <!-- Background circle -->
  <circle cx="64" cy="64" r="60" fill="#4A90E2" stroke="#2E5C8A" stroke-width="2"/>
  
  <!-- Left image representation -->
  <rect x="20" y="35" width="35" height="25" rx="3" fill="#E8F4FD" stroke="#2E5C8A" stroke-width="1.5"/>
  <circle cx="28" cy="43" r="3" fill="#FFD700"/>
  <polygon points="25,52 32,45 38,50 45,42 50,55" fill="#87CEEB"/>
  
  <!-- Right image representation -->
  <rect x="73" y="35" width="35" height="25" rx="3" fill="#E8F4FD" stroke="#2E5C8A" stroke-width="1.5"/>
  <circle cx="81" cy="43" r="3" fill="#FF6B6B"/>
  <polygon points="78,52 85,45 91,50 98,42 103,55" fill="#98FB98"/>
  
  <!-- Comparison arrows/divider -->
  <line x1="64" y1="25" x2="64" y2="70" stroke="#2E5C8A" stroke-width="3"/>
  <polygon points="59,30 64,20 69,30" fill="#2E5C8A"/>
  <polygon points="59,65 64,75 69,65" fill="#2E5C8A"/>
  
  <!-- Mouse cursor indicator -->
  <g transform="translate(45, 80)">
    <path d="M0,0 L0,12 L3,9 L6,12 L8,10 L5,7 L8,7 Z" fill="#FFFFFF" stroke="#2E5C8A" stroke-width="1"/>
  </g>
  
  <!-- Text label -->
  <text x="64" y="110" text-anchor="middle" font-family="Arial, sans-serif" font-size="12" font-weight="bold" fill="#2E5C8A">COMPARE</text>
</svg>
